nColumns=28
nRows=25
DataType=double
version=3
OpenSimVersion=4.1
endheader
time	ground_force_1_vx	ground_force_1_vy	ground_force_1_vz	ground_force_1_px	ground_force_1_py	ground_force_1_pz	ground_force_1_mx	ground_force_1_my	ground_force_1_mz	ground_force_2_vx	ground_force_2_vy	ground_force_2_vz	ground_force_2_px	ground_force_2_py	ground_force_2_pz	ground_force_2_mx	ground_force_2_my	ground_force_2_mz	ground_force_3_vx	ground_force_3_vy	ground_force_3_vz	ground_force_3_px	ground_force_3_py	ground_force_3_pz	ground_force_3_mx	ground_force_3_my	ground_force_3_mz
7.16	-0.763259	-1.52716	0.000814106	0.283	3.14193e-17	-3.14193e-17	4.57398e-17	-0.411987	-5.07814e-33	-27.3645	265.946	-27.3172	0.578175	6.41904e-17	1.12693	1.01187e-15	-9.11412	-1.1234e-31	33.4545	381.742	30.8689	0.45501	5.05162e-17	1.27999	-2.89344e-17	0.260618	3.21237e-33
7.165	-0.610671	-1.52714	-0.304377	0.3224	3.57936e-17	0.0612	4.06576e-17	-0.366211	-4.5139e-33	-27.9743	265.03	-27.1666	0.580503	6.44488e-17	1.12838	1.05423e-15	-9.49565	-1.17043e-31	32.5402	380.519	31.0167	0.457615	5.08055e-17	1.27949	-3.53779e-17	0.318656	-1.45519e-14
7.17	-0.915775	-0.916505	0.00062063	0.472667	5.24765e-17	-0.2	7.11508e-17	-0.640869	2.84217e-17	-27.365	265.334	-27.013	0.580079	6.44017e-17	1.12813	1.02419e-15	-9.22504	-1.13707e-31	32.0819	380.211	31.4735	0.457815	5.08276e-17	1.27955	-2.95171e-17	0.265866	3.27706e-33
7.175	-0.000357532	-1.83245	0.000877348	0.366667	4.07082e-17	0.1	2.5411e-17	-0.228882	-2.82119e-33	-27.5192	266.247	-26.2472	0.579285	6.43136e-17	1.1267	9.673e-16	-8.71266	-1.07392e-31	31.6221	380.819	31.3237	0.458115	5.0861e-17	1.27968	-2.15434e-17	0.194046	2.3918e-33
7.18	-0.763337	-1.83259	-0.304208	0.269167	2.98835e-17	0.051	4.88456e-17	-0.439962	1.42109e-17	-27.8265	267.465	-25.9381	0.577548	6.41208e-17	1.12604	9.97192e-16	-8.9819	-1.1071e-31	31.469	380.512	31.6281	0.459041	5.09638e-17	1.27926	-4.62101e-17	0.416224	1.45519e-14
7.185	-0.915755	-0.611224	-0.304626	0.409	4.54081e-17	-0.597	1.28749e-16	-1.15967	-1.4294e-32	-28.2852	267.465	-26.7005	0.579078	6.42905e-17	1.12568	1.00089e-15	-9.01526	-1.11122e-31	31.0109	380.206	31.6271	0.460324	5.11062e-17	1.27884	-1.73475e-17	0.156253	1.92596e-33
7.19	-0.76318	-0.916443	0.15317	0.471667	5.23655e-17	-0.301	8.18799e-17	-0.737508	2.84217e-17	-28.4368	266.244	-26.3984	0.581326	6.45402e-17	1.12773	9.92362e-16	-8.9384	-1.10174e-31	30.5528	379.899	31.6262	0.459442	5.10083e-17	1.27889	-3.29099e-17	0.296426	-1.45519e-14
7.195	-0.916061	-2.44341	0.00126693	0.27725	3.07809e-17	0.075	4.31987e-17	-0.389099	-4.79602e-33	-28.4375	266.244	-26.7032	0.582357	6.46547e-17	1.12669	9.81167e-16	-8.83757	-1.08931e-31	30.8567	380.206	31.0176	0.461043	5.11861e-17	1.27931	-2.69658e-17	0.242886	2.99381e-33
7.2	-0.610699	-1.52717	-0.304362	0.3224	3.57936e-17	0.0612	4.57398e-17	-0.411987	-5.07814e-33	-28.5887	264.719	-26.7071	0.585593	6.50139e-17	1.12761	1.03013e-15	-9.27863	-1.14368e-31	30.5515	379.903	30.2538	0.461248	5.12088e-17	1.27983	-3.45883e-18	0.0311544	3.84007e-34
7.205	-0.610756	-1.83255	0.00094225	0.268667	2.9828e-17	-0.05	4.91279e-17	-0.442505	1.42109e-17	-29.6579	265.022	-26.7055	0.586161	6.5077e-17	1.12805	1.01179e-15	-9.11342	-1.12332e-31	30.248	378.684	29.6387	0.462085	5.13017e-17	1.27932	2.53291e-17	-0.228145	-2.8121e-33
7.21	-0.763273	-1.22192	-0.609588	0.40375	4.48253e-17	0.003	6.94567e-17	-0.62561	-7.71124e-33	-29.8109	264.717	-27.1637	0.587121	6.51835e-17	1.12726	8.30918e-15	-9.30642	-9.22504e-31	30.2476	378.378	29.7905	0.462296	5.13251e-17	1.27913	1.95937e-17	-0.176484	1.45519e-14
7.215	-0.610744	-1.5273	-0.762053	0.3624	4.02345e-17	0.123	4.60786e-17	-0.415039	-5.11575e-33	-29.8127	265.632	-27.3134	0.584754	6.49208e-17	1.12649	1.04253e-15	-9.39025	1.45519e-14	30.704	378.684	29.4872	0.462816	5.13829e-17	1.27956	1.31351e-18	-0.0118311	1.45519e-14
7.22	-0.915856	-1.22189	0.000750504	0.4545	5.04596e-17	-0.15	6.60686e-17	-0.595093	-7.33508e-33	-29.6616	266.544	-26.3951	0.583952	6.48317e-17	1.1261	1.02126e-15	-9.19869	-1.13383e-31	30.5518	377.762	31.0098	0.46454	5.15743e-17	1.27902	-3.91625e-17	0.352744	4.34791e-33
7.225	-0.763319	-1.52723	-0.304322	0.363	4.03011e-17	0.0612	5.11608e-17	-0.460815	-5.67999e-33	-29.5083	265.326	-27.3138	0.585203	6.49706e-17	1.12812	1.07661e-15	-9.69722	-1.19528e-31	30.5497	378.371	31.1653	0.463388	5.14464e-17	1.27867	-3.34479e-17	0.301272	1.45519e-14
7.23	-0.915919	-1.52727	0.000879376	0.3636	4.03677e-17	-4.03677e-17	6.09864e-17	-0.549316	-6.77085e-33	-29.0518	265.935	-27.0068	0.582782	6.47018e-17	1.12797	1.03739e-15	-9.344	-1.15174e-31	30.8545	378.064	31.6224	0.463243	5.14303e-17	1.27825	-3.28294e-17	0.295701	3.64479e-33
7.235	-0.763268	-1.22186	-0.304447	0.40375	4.48253e-17	0.0765	4.10811e-17	-0.370026	-4.56092e-33	-29.3579	265.937	-27.9219	0.584323	6.48729e-17	1.12829	1.08027e-15	-9.73021	-1.19934e-31	31.0049	378.671	32.2357	0.461372	5.12226e-17	1.27839	-6.29832e-17	0.567303	6.99254e-33
7.24	-0.763271	-1.22186	-0.304446	0.40375	4.48253e-17	-0.0735	7.41154e-17	-0.667572	-8.22846e-33	-29.5114	266.24	-27.6155	0.583364	6.47664e-17	1.12735	1.08636e-15	-9.78503	-1.2061e-31	31.1568	378.672	31.931	0.461374	5.12228e-17	1.27911	-4.02811e-17	0.36282	-1.45519e-14
7.245	-0.915775	-0.611222	0.153139	0.609	6.76126e-17	-0.3015	8.47033e-17	-0.762939	-9.40395e-33	-29.5118	265.936	-28.379	0.584836	6.49298e-17	1.12897	1.11075e-15	-10.0047	-1.23318e-31	31.4621	378.37	30.8621	0.461227	5.12065e-17	1.27915	-1.65284e-17	0.148875	1.83502e-33
7.25	-0.763222	-0.916501	-0.304563	0.338333	3.75625e-17	-0.298	8.58327e-17	-0.773112	1.42109e-17	-29.8158	264.715	-28.2294	0.587121	6.51835e-17	1.12965	1.09417e-15	-9.85537	-1.21477e-31	31.9193	378.373	30.2523	0.461234	5.12073e-17	1.28011	2.33306e-17	-0.210143	1.45519e-14
7.255	-0.916006	-1.8327	-0.304142	0.303	3.36398e-17	0.051	5.42101e-17	-0.488281	-6.01853e-33	-30.1231	265.631	-29.1419	0.586297	6.50921e-17	1.12852	1.13458e-15	-10.2194	-1.25963e-31	31.7674	377.764	29.6398	0.462743	5.13748e-17	1.27973	2.36144e-17	-0.212699	-1.45519e-14
7.26	-0.610607	-0.916399	0.000550626	0.470667	5.22545e-17	-0.3	6.09864e-17	-0.549316	2.84217e-17	-30.1231	265.325	-28.6848	0.586224	6.5084e-17	1.12878	1.12145e-15	-10.1011	-1.24506e-31	31.4621	377.458	29.6388	0.463678	5.14786e-17	1.2793	4.98737e-17	-0.449222	-5.53709e-33
7.265	-0.915884	-1.22191	0.000764966	0.4045	4.49085e-17	-0.075	6.86097e-17	-0.617981	-7.6172e-33	-29.9712	265.326	-29.2949	0.587779	6.52566e-17	1.12842	1.15776e-15	-10.4282	-1.28537e-31	31.4601	378.067	29.7942	0.463252	5.14314e-17	1.27992	4.13256e-17	-0.372228	-4.58807e-33
7.27	-0.916099	-2.13815	-0.609146	0.316857	3.51782e-17	0.173143	4.62238e-17	-0.416347	-5.13187e-33	-29.8193	265.327	-29.5999	0.587783	6.5257e-17	1.1298	1.17782e-15	-10.6088	-1.30764e-31	31.6113	378.37	30.1011	0.463405	5.14483e-17	1.27841	3.78626e-17	-0.341036	-1.45519e-14
7.275	-0.000437015	-1.83252	0.000918034	0.3	3.33067e-17	0.1	2.03288e-17	-0.183105	-2.25695e-33	-29.5146	265.326	-29.5997	0.587272	6.52003e-17	1.13083	1.16509e-15	-10.4942	-1.2935e-31	31.6085	379.281	31.0208	0.464579	5.15786e-17	1.27899	-5.92787e-18	0.0533935	-1.45519e-14
7.28	-0.610842	-1.83268	-0.609333	0.302	3.35287e-17	0.102	4.57398e-17	-0.411987	-5.07814e-33	-28.752	265.327	-29.4472	0.587807	6.52597e-17	1.13118	1.19351e-15	-10.7502	-1.32506e-31	31.1492	379.582	31.6326	0.463998	5.15141e-17	1.2787	-3.40079e-17	0.306316	1.45519e-14
